<svg xmlns="http://www.w3.org/2000/svg" viewBox="0 0 1024 1024"><path d="M925.866667 98.133333c-17.066667-17.066667-42.666667-17.066667-59.733334 0l-149.333333 149.333334V164.266667c0-23.466667-19.2-42.666667-42.666667-42.666667s-42.666667 19.2-42.666666 42.666667v168.533333l-134.4 134.4V198.4c0-23.466667-19.2-42.666667-42.666667-42.666667s-42.666667 19.2-42.666667 42.666667v354.133333l-136.533333 136.533334V234.666667c0-23.466667-19.2-42.666667-42.666667-42.666667s-42.666667 19.2-42.666666 42.666667v539.733333l-91.733334 91.733333c-17.066667 17.066667-17.066667 42.666667 0 59.733334 8.533333 8.533333 19.2 12.8 29.866667 12.8s21.333333-4.266667 29.866667-12.8l93.866666-93.866667H789.333333c23.466667 0 42.666667-19.2 42.666667-42.666667s-19.2-42.666667-42.666667-42.666666H337.066667l134.4-134.4h352c23.466667 0 42.666667-19.2 42.666666-42.666667s-19.2-42.666667-42.666666-42.666667H558.933333l134.4-134.4h166.4c23.466667 0 42.666667-19.2 42.666667-42.666666s-19.2-42.666667-42.666667-42.666667h-81.066666l147.2-147.2c17.066667-19.2 17.066667-44.8 0-61.866667" fill="#efb336" p-id="13926"></path></svg>